<svg width="4097" height="4042" xmlns="http://www.w3.org/2000/svg" xmlns:xlink="http://www.w3.org/1999/xlink" xml:space="preserve" overflow="hidden"><defs><clipPath id="clip0"><rect x="-456" y="-779" width="4097" height="4042"/></clipPath></defs><g clip-path="url(#clip0)" transform="translate(456 779)"><path d="M-274.5 1331.38C-274.5 1285.05-236.946 1247.5-190.62 1247.5L1730.62 1247.5C1776.95 1247.5 1814.5 1285.05 1814.5 1331.38L1814.5 2335.62C1814.5 2381.95 1776.95 2419.5 1730.62 2419.5L-190.62 2419.5C-236.946 2419.5-274.5 2381.95-274.5 2335.62Z" stroke="#000000" stroke-width="4.58333" stroke-linejoin="round" stroke-miterlimit="10" fill="#CBB2AB" fill-rule="evenodd"/><path d="M-282.5 455.617C-282.5 422.968-256.032 396.5-223.383 396.5L2628.38 396.5C2661.03 396.5 2687.5 422.968 2687.5 455.617L2687.5 1163.38C2687.5 1196.03 2661.03 1222.5 2628.38 1222.5L-223.383 1222.5C-256.032 1222.5-282.5 1196.03-282.5 1163.38Z" stroke="#000000" stroke-width="4.58333" stroke-linejoin="round" stroke-miterlimit="10" fill="#F46833" fill-rule="evenodd"/><path d="M2726.5 31.0521C2726.5-3.49455 2754.51-31.5001 2789.05-31.5001L3537.95-31.5001C3572.49-31.5001 3600.5-3.49455 3600.5 31.0521L3600.5 1759.95C3600.5 1794.49 3572.49 1822.5 3537.95 1822.5L2789.05 1822.5C2754.51 1822.5 2726.5 1794.49 2726.5 1759.95Z" stroke="#000000" stroke-width="4.58333" stroke-linejoin="round" stroke-miterlimit="10" fill="#F46833" fill-rule="evenodd"/><text fill="#FFFFFF" font-family="Arial,Arial_MSFontService,sans-serif" font-weight="700" font-size="55" transform="matrix(1 0 0 1 2802.82 55)">Relational Database Design</text><path d="M-282.5-7.51426C-282.5-23.5226-269.523-36.4999-253.515-36.4999L2660.51-36.4999C2676.52-36.4999 2689.5-23.5226 2689.5-7.51426L2689.5 339.514C2689.5 355.523 2676.52 368.5 2660.51 368.5L-253.515 368.5C-269.523 368.5-282.5 355.523-282.5 339.514Z" stroke="#000000" stroke-width="4.58333" stroke-linejoin="round" stroke-miterlimit="10" fill="#F46833" fill-rule="evenodd"/><rect x="-456" y="-464" width="4092" height="263" fill="#C4C5C6"/><rect x="-448" y="2537" width="4084" height="286" fill="#C4C5C6"/><rect x="278" y="2927" width="2757" height="336" fill="#C4C5C6"/><path d="M2816.5 829.667C2816.5 817.424 2826.42 807.5 2838.67 807.5L3449.33 807.5C3461.58 807.5 3471.5 817.424 3471.5 829.667L3471.5 918.333C3471.5 930.575 3461.58 940.5 3449.33 940.5L2838.67 940.5C2826.42 940.5 2816.5 930.575 2816.5 918.333Z" stroke="#000000" stroke-width="4.58333" stroke-miterlimit="8" fill="#FFFFFF" fill-rule="evenodd"/><text font-family="Arial,Arial_MSFontService,sans-serif" font-weight="400" font-size="55" transform="matrix(1 0 0 1 2871.68 893)">Timeseries </text><text font-family="Arial,Arial_MSFontService,sans-serif" font-weight="400" font-size="55" transform="matrix(1 0 0 1 3153.24 893)">Data </text><text font-family="Arial,Arial_MSFontService,sans-serif" font-weight="400" font-size="55" transform="matrix(1 0 0 1 3284.44 893)">Store</text><path d="M2807.5 485.333C2807.5 460.572 2958.38 440.5 3144.5 440.5 3330.62 440.5 3481.5 460.572 3481.5 485.333L3481.5 664.667C3481.5 689.427 3330.62 709.5 3144.5 709.5 2958.38 709.5 2807.5 689.427 2807.5 664.667Z" fill="#9D9EA0" fill-rule="evenodd"/><path d="M3481.5 485.333C3481.5 510.094 3330.62 530.167 3144.5 530.167 2958.38 530.167 2807.5 510.094 2807.5 485.333" stroke="#000000" stroke-width="4.58333" stroke-miterlimit="8" fill="none" fill-rule="evenodd"/><path d="M2807.5 485.333C2807.5 460.572 2958.38 440.5 3144.5 440.5 3330.62 440.5 3481.5 460.572 3481.5 485.333L3481.5 664.667C3481.5 689.427 3330.62 709.5 3144.5 709.5 2958.38 709.5 2807.5 689.427 2807.5 664.667Z" stroke="#000000" stroke-width="4.58333" stroke-miterlimit="8" fill="none" fill-rule="evenodd"/><text fill="#FFFFFF" font-family="Arial,Arial_MSFontService,sans-serif" font-weight="400" font-size="55" transform="matrix(1 0 0 1 2897.3 617)">Relational Database</text><path d="M1864.5 1313.54C1864.5 1280.94 1890.94 1254.5 1923.55 1254.5L2630.46 1254.5C2663.06 1254.5 2689.5 1280.94 2689.5 1313.54L2689.5 2360.46C2689.5 2393.06 2663.06 2419.5 2630.46 2419.5L1923.55 2419.5C1890.94 2419.5 1864.5 2393.06 1864.5 2360.46Z" stroke="#000000" stroke-width="4.58333" stroke-linejoin="round" stroke-miterlimit="10" fill="#F46833" fill-rule="evenodd"/><text fill="#FFFFFF" font-family="Arial,Arial_MSFontService,sans-serif" font-weight="700" font-size="55" transform="matrix(1 0 0 1 2002.32 2372)">Semantic Annotation</text><path d="M1535.5-414.333C1535.5-421.053 1540.95-426.5 1547.67-426.5L2135.33-426.5C2142.05-426.5 2147.5-421.053 2147.5-414.333L2147.5-268.667C2147.5-261.947 2142.05-256.5 2135.33-256.5L1547.67-256.5C1540.95-256.5 1535.5-261.947 1535.5-268.667Z" stroke="#000000" stroke-width="4.58333" stroke-miterlimit="8" fill="#9D9EA0" fill-rule="evenodd"/><text fill="#FFFFFF" font-family="Arial,Arial_MSFontService,sans-serif" font-weight="400" font-size="55" transform="matrix(1 0 0 1 1629.47 -356)">Energy Efficiency </text><text fill="#FFFFFF" font-family="Arial,Arial_MSFontService,sans-serif" font-weight="400" font-size="55" transform="matrix(1 0 0 1 1680.83 -290)">Improvement</text><path d="M2861.5 2076.33C2861.5 2065.38 2870.38 2056.5 2881.33 2056.5L3406.67 2056.5C3417.62 2056.5 3426.5 2065.38 3426.5 2076.33L3426.5 2155.67C3426.5 2166.62 3417.62 2175.5 3406.67 2175.5L2881.33 2175.5C2870.38 2175.5 2861.5 2166.62 2861.5 2155.67Z" stroke="#000000" stroke-width="4.58333" stroke-miterlimit="8" fill="#9D9EA0" fill-rule="evenodd"/><text fill="#FFFFFF" font-family="Arial,Arial_MSFontService,sans-serif" font-weight="400" font-size="55" transform="matrix(1 0 0 1 2916.58 2136)">Data Transmission</text><path d="M656.5 493.667C656.5 469.274 915.056 449.5 1234 449.5 1552.94 449.5 1811.5 469.274 1811.5 493.667L1811.5 670.333C1811.5 694.726 1552.94 714.5 1234 714.5 915.056 714.5 656.5 694.726 656.5 670.333Z" fill="#9D9EA0" fill-rule="evenodd"/><path d="M1811.5 493.667C1811.5 518.059 1552.94 537.833 1234 537.833 915.056 537.833 656.5 518.059 656.5 493.667" stroke="#000000" stroke-width="4.58333" stroke-miterlimit="8" fill="none" fill-rule="evenodd"/><path d="M656.5 493.667C656.5 469.274 915.056 449.5 1234 449.5 1552.94 449.5 1811.5 469.274 1811.5 493.667L1811.5 670.333C1811.5 694.726 1552.94 714.5 1234 714.5 915.056 714.5 656.5 694.726 656.5 670.333Z" stroke="#000000" stroke-width="4.58333" stroke-miterlimit="8" fill="none" fill-rule="evenodd"/><text fill="#FFFFFF" font-family="Arial,Arial_MSFontService,sans-serif" font-weight="400" font-size="55" transform="matrix(1 0 0 1 813.142 624)">NoSQL</text><text fill="#FFFFFF" font-family="Arial,Arial_MSFontService,sans-serif" font-weight="400" font-size="55" transform="matrix(1 0 0 1 1006.47 624)">Database</text><path d="M-456-60.0002 3636.14-59.9998" stroke="#000000" stroke-width="8.02083" stroke-linejoin="round" stroke-miterlimit="10" stroke-dasharray="32.0833 24.0625" fill="none" fill-rule="evenodd"/><path d="M2715.5-416.261C2715.5-423.021 2720.98-428.5 2727.74-428.5L3315.26-428.5C3322.02-428.5 3327.5-423.021 3327.5-416.261L3327.5-269.739C3327.5-262.979 3322.02-257.5 3315.26-257.5L2727.74-257.5C2720.98-257.5 2715.5-262.979 2715.5-269.739Z" stroke="#000000" stroke-width="4.58333" stroke-miterlimit="8" fill="#9D9EA0" fill-rule="evenodd"/><text fill="#FFFFFF" font-family="Arial,Arial_MSFontService,sans-serif" font-weight="400" font-size="55" transform="matrix(1 0 0 1 2836.81 -357)">Energy domain  </text><text fill="#FFFFFF" font-family="Arial,Arial_MSFontService,sans-serif" font-weight="400" font-size="55" transform="matrix(1 0 0 1 2890.37 -291)">application</text><path d="M355.5-405.261C355.5-412.021 360.979-417.5 367.739-417.5L955.261-417.5C962.021-417.5 967.5-412.021 967.5-405.261L967.5-258.739C967.5-251.979 962.021-246.5 955.261-246.5L367.739-246.5C360.979-246.5 355.5-251.979 355.5-258.739Z" stroke="#000000" stroke-width="4.58333" stroke-miterlimit="8" fill="#9D9EA0" fill-rule="evenodd"/><text fill="#FFFFFF" font-family="Arial,Arial_MSFontService,sans-serif" font-weight="400" font-size="55" transform="matrix(1 0 0 1 482.734 -346)">DER Flexibility </text><text fill="#FFFFFF" font-family="Arial,Arial_MSFontService,sans-serif" font-weight="400" font-size="55" transform="matrix(1 0 0 1 501.067 -280)">Management</text><path d="M647.5 2170.33C647.5 2156.07 659.067 2144.5 673.334 2144.5L1513.67 2144.5C1527.93 2144.5 1539.5 2156.07 1539.5 2170.33L1539.5 2273.67C1539.5 2287.93 1527.93 2299.5 1513.67 2299.5L673.334 2299.5C659.067 2299.5 647.5 2287.93 647.5 2273.67Z" stroke="#000000" stroke-width="4.58333" stroke-miterlimit="8" fill="#9D9EA0" fill-rule="evenodd"/><text fill="#FFFFFF" font-family="Arial,Arial_MSFontService,sans-serif" font-weight="400" font-size="55" transform="matrix(1 0 0 1 788.297 2209)">Domain and scope of the </text><text fill="#FFFFFF" font-family="Arial,Arial_MSFontService,sans-serif" font-weight="400" font-size="55" transform="matrix(1 0 0 1 989.666 2275)">ontology</text><path d="M912.5 2784.5 1044.9 2604.5 1574.5 2604.5 1442.1 2784.5Z" stroke="#000000" stroke-width="4.58333" stroke-miterlimit="8" fill="#9D9EA0" fill-rule="evenodd"/><text fill="#FFFFFF" font-family="Arial,Arial_MSFontService,sans-serif" font-weight="400" font-size="55" transform="matrix(1 0 0 1 1133.32 2681)">Ontology </text><text fill="#FFFFFF" font-family="Arial,Arial_MSFontService,sans-serif" font-weight="400" font-size="55" transform="matrix(1 0 0 1 1142.48 2747)">Sources</text><path d="M0-6.875 245-6.875 245 365.749 238.125 358.874 441.874 358.874 441.874 372.624 231.25 372.624 231.25 0 238.125 6.875 0 6.875ZM434.999 345.124 476.249 365.749 434.999 386.374Z" transform="matrix(1.83697e-16 1 1 -1.83697e-16 727 1668)"/><path d="M-209.5 2191.33C-209.5 2182.59-202.411 2175.5-193.666 2175.5L326.666 2175.5C335.411 2175.5 342.5 2182.59 342.5 2191.33L342.5 2254.67C342.5 2263.41 335.411 2270.5 326.666 2270.5L-193.666 2270.5C-202.411 2270.5-209.5 2263.41-209.5 2254.67Z" stroke="#000000" stroke-width="4.58333" stroke-miterlimit="8" fill="#FFFFFF" fill-rule="evenodd"/><text font-family="Arial,Arial_MSFontService,sans-serif" font-weight="400" font-size="55" transform="matrix(1 0 0 1 -164.119 2242)">Ontology Selection</text><path d="M-199.5 1769.33C-199.5 1760.59-192.411 1753.5-183.666 1753.5L312.667 1753.5C321.411 1753.5 328.5 1760.59 328.5 1769.33L328.5 1832.67C328.5 1841.41 321.411 1848.5 312.667 1848.5L-183.666 1848.5C-192.411 1848.5-199.5 1841.41-199.5 1832.67Z" stroke="#000000" stroke-width="4.58333" stroke-miterlimit="8" fill="#FFFFFF" fill-rule="evenodd"/><text font-family="Arial,Arial_MSFontService,sans-serif" font-weight="400" font-size="55" transform="matrix(1 0 0 1 -132.669 1820)">Ontology Reuse</text><path d="M59.1928 2175.61 58.0561 2133.55 71.801 2133.18 72.9378 2175.24ZM44.4968 2140.79 63.9999 2099 85.7318 2139.68Z"/><path d="M-119.5 2099.5-46.1001 1922.5 247.5 1922.5 174.1 2099.5Z" stroke="#000000" stroke-width="4.58333" stroke-miterlimit="8" fill="#9D9EA0" fill-rule="evenodd"/><text fill="#FFFFFF" font-family="Arial,Arial_MSFontService,sans-serif" font-weight="400" font-size="55" transform="matrix(1 0 0 1 -42.7096 1997)">Selected </text><text fill="#FFFFFF" font-family="Arial,Arial_MSFontService,sans-serif" font-weight="400" font-size="55" transform="matrix(1 0 0 1 -45.8721 2063)">Ontology</text><path d="M6.875-3.32756e-05 6.87519 40.1882-6.87481 40.1883-6.875 3.32756e-05ZM20.6252 33.3132 0.000360892 74.5633-20.6248 33.3134Z" transform="matrix(1 0 0 -1 63.9999 1922.56)"/><path d="M-206.5 1526.67C-206.5 1510.56-193.442 1497.5-177.333 1497.5L306.333 1497.5C322.441 1497.5 335.5 1510.56 335.5 1526.67L335.5 1643.33C335.5 1659.44 322.441 1672.5 306.333 1672.5L-177.333 1672.5C-193.442 1672.5-206.5 1659.44-206.5 1643.33Z" stroke="#000000" stroke-width="4.58333" stroke-miterlimit="8" fill="#FFFFFF" fill-rule="evenodd"/><text font-family="Arial,Arial_MSFontService,sans-serif" font-weight="400" font-size="55" transform="matrix(1 0 0 1 -45.8839 1568)">Ontology </text><text font-family="Arial,Arial_MSFontService,sans-serif" font-weight="400" font-size="55" transform="matrix(1 0 0 1 -123.503 1634)">Implementation</text><path d="M57.1253 1753.5 57.1251 1706.38 70.8751 1706.38 70.8753 1753.5ZM43.3751 1713.25 63.9999 1672 84.6251 1713.25Z"/><path d="M0.0166347-6.87498 98.3884-6.63696 98.3551 7.113-0.0166347 6.87498ZM91.5467-20.4036 132.747 0.321194 91.4469 20.8463Z" transform="matrix(1 0 0 -1 335 1584.32)"/><path d="M467.5 1584 727.5 1499.5 987.5 1584 727.5 1668.5Z" stroke="#000000" stroke-width="4.58333" stroke-miterlimit="8" fill="#9D9EA0" fill-rule="evenodd"/><text fill="#FFFFFF" font-family="Arial,Arial_MSFontService,sans-serif" font-weight="400" font-size="55" transform="matrix(1 0 0 1 599.58 1604)">Evaluation</text><path d="M0.0146814-6.87498 271.358-6.29554 271.329 7.45443-0.0146814 6.87498ZM264.513-20.0602 305.718 0.652854 264.424 21.1897Z" transform="matrix(-1 0 0 1 647.718 2222)"/><path d="M987.109 1577.13 1279.97 1581.77 1279.75 1595.52 986.891 1590.87ZM1273.32 1567.92 1314.23 1589.19 1272.66 1609.16Z"/><text font-family="Arial,Arial_MSFontService,sans-serif" font-weight="400" font-size="55" transform="matrix(1 0 0 1 1059.14 1564)">Yes</text><text font-family="Arial,Arial_MSFontService,sans-serif" font-weight="400" font-size="55" transform="matrix(1 0 0 1 606.687 1730)">No</text><path d="M1278.5 1677.5 1351.9 1501.5 1645.5 1501.5 1572.1 1677.5Z" stroke="#000000" stroke-width="4.58333" stroke-miterlimit="8" fill="#9D9EA0" fill-rule="evenodd"/><text fill="#FFFFFF" font-family="Arial,Arial_MSFontService,sans-serif" font-weight="400" font-size="55" transform="matrix(1 0 0 1 1351.6 1609)">Ontology</text><path d="M1478.5 1102.5 1575.7 921.5 1964.5 921.5 1867.3 1102.5Z" stroke="#000000" stroke-width="4.58333" stroke-miterlimit="8" fill="#9D9EA0" fill-rule="evenodd"/><text fill="#FFFFFF" font-family="Arial,Arial_MSFontService,sans-serif" font-weight="400" font-size="55" transform="matrix(1 0 0 1 1596.17 998)">Annotated </text><text fill="#FFFFFF" font-family="Arial,Arial_MSFontService,sans-serif" font-weight="400" font-size="55" transform="matrix(1 0 0 1 1663.2 1064)">Data</text><path d="M0-6.875 234.3-6.875 234.3 724.521 179.3 724.521 179.3 710.771 227.425 710.771 220.55 717.646 220.55 0 227.425 6.875 0 6.875ZM186.175 738.271 144.925 717.646 186.175 697.021Z" transform="matrix(1 0 0 -1 3326 1590.65)"/><path d="M0-6.875 156.718-6.875 156.718 1177.12 149.843 1170.25 299.686 1170.25 299.686 1184 142.968 1184 142.968 0 149.843 6.875 0 6.875ZM292.811 1156.5 334.061 1177.12 292.811 1197.75Z" transform="matrix(-1.83697e-16 -1 -1 1.83697e-16 1243.12 2604.06)"/><path d="M3143.91 2311.3 2881.08 2311.3 2881.08 2222 2887.95 2228.88 2666.38 2228.88 2666.38 2215.12 2894.83 2215.12 2894.83 2304.42 2887.95 2297.55 3143.91 2297.55ZM2673.25 2242.62 2632 2222 2673.25 2201.38Z"/><path d="M2175.13 2616.73 2175.13 2440.55 3143.42 2440.55 3136.54 2447.43 3136.54 2209.38 3150.29 2209.38 3150.29 2454.3 2182 2454.3 2188.88 2447.43 2188.88 2616.73ZM3122.79 2216.25 3143.42 2175 3164.04 2216.25Z"/><path d="M1914.5 2171.16C1914.5 2166.38 1918.38 2162.5 1923.16 2162.5L2623.84 2162.5C2628.62 2162.5 2632.5 2166.38 2632.5 2171.16L2632.5 2274.84C2632.5 2279.62 2628.62 2283.5 2623.84 2283.5L1923.16 2283.5C1918.38 2283.5 1914.5 2279.62 1914.5 2274.84Z" stroke="#000000" stroke-width="4.58333" stroke-miterlimit="8" fill="#FFFFFF" fill-rule="evenodd"/><text font-family="Arial,Arial_MSFontService,sans-serif" font-weight="400" font-size="55" transform="matrix(1 0 0 1 2073.32 2242)">Topic annotation</text><path d="M2850.5 1900.67C2850.5 1891.74 2857.74 1884.5 2866.67 1884.5L3424.33 1884.5C3433.26 1884.5 3440.5 1891.74 3440.5 1900.67L3440.5 1965.33C3440.5 1974.26 3433.26 1981.5 3424.33 1981.5L2866.67 1981.5C2857.74 1981.5 2850.5 1974.26 2850.5 1965.33Z" stroke="#000000" stroke-width="4.58333" stroke-miterlimit="8" fill="#FFFFFF" fill-rule="evenodd"/><text font-family="Arial,Arial_MSFontService,sans-serif" font-weight="400" font-size="55" transform="matrix(1 0 0 1 2917.96 1952)">Data Classification</text><path d="M3138.23 1883.49 3137.31 1715.41 3151.06 1715.34 3151.98 1883.41ZM3123.6 1722.36 3144 1681 3164.85 1722.14Z"/><path d="M2916.5 1681.5 3007.7 1500.5 3372.5 1500.5 3281.3 1681.5Z" stroke="#000000" stroke-width="4.58333" stroke-miterlimit="8" fill="#9D9EA0" fill-rule="evenodd"/><text fill="#FFFFFF" font-family="Arial,Arial_MSFontService,sans-serif" font-weight="400" font-size="55" transform="matrix(1 0 0 1 3010.69 1578)">Timeseries </text><text fill="#FFFFFF" font-family="Arial,Arial_MSFontService,sans-serif" font-weight="400" font-size="55" transform="matrix(1 0 0 1 3085.85 1644)">Data</text><path d="M0.00761093-6.875 419.419-6.41069 419.404 7.3393-0.00761093 6.875ZM412.559-20.1683 453.786 0.502362 412.514 21.0817Z" transform="matrix(-1 0 0 1 2849.79 1932)"/><path d="M2043.5 2023.5 2122.1 1842.5 2436.5 1842.5 2357.9 2023.5Z" stroke="#000000" stroke-width="4.58333" stroke-miterlimit="8" fill="#9D9EA0" fill-rule="evenodd"/><text fill="#FFFFFF" font-family="Arial,Arial_MSFontService,sans-serif" font-weight="400" font-size="55" transform="matrix(1 0 0 1 2124.8 1920)">Semantic </text><text fill="#FFFFFF" font-family="Arial,Arial_MSFontService,sans-serif" font-weight="400" font-size="55" transform="matrix(1 0 0 1 2181.22 1986)">Data</text><path d="M1964.5 1675.67C1964.5 1666.74 1971.74 1659.5 1980.67 1659.5L2574.33 1659.5C2583.26 1659.5 2590.5 1666.74 2590.5 1675.67L2590.5 1740.33C2590.5 1749.26 2583.26 1756.5 2574.33 1756.5L1980.67 1756.5C1971.74 1756.5 1964.5 1749.26 1964.5 1740.33Z" stroke="#000000" stroke-width="4.58333" stroke-miterlimit="8" fill="#FFFFFF" fill-rule="evenodd"/><text font-family="Arial,Arial_MSFontService,sans-serif" font-weight="400" font-size="55" transform="matrix(1 0 0 1 2022.5 1727)">Similarity Calculation</text><path d="M1979.5 1400.33C1979.5 1385.51 1991.51 1373.5 2006.33 1373.5L2542.67 1373.5C2557.49 1373.5 2569.5 1385.51 2569.5 1400.33L2569.5 1507.67C2569.5 1522.49 2557.49 1534.5 2542.67 1534.5L2006.33 1534.5C1991.51 1534.5 1979.5 1522.49 1979.5 1507.67Z" stroke="#000000" stroke-width="4.58333" stroke-miterlimit="8" fill="#FFFFFF" fill-rule="evenodd"/><text font-family="Arial,Arial_MSFontService,sans-serif" font-weight="400" font-size="55" transform="matrix(1 0 0 1 2053.38 1441)">Columns</text><text font-family="Arial,Arial_MSFontService,sans-serif" font-weight="400" font-size="55" transform="matrix(1 0 0 1 2269.37 1441)">-</text><text font-family="Arial,Arial_MSFontService,sans-serif" font-weight="400" font-size="55" transform="matrix(1 0 0 1 2287.7 1441)">Property </text><text font-family="Arial,Arial_MSFontService,sans-serif" font-weight="400" font-size="55" transform="matrix(1 0 0 1 2143.33 1507)">Annotation</text><path d="M2269.47 1658.63 2267.77 1568.5 2281.52 1568.24 2283.22 1658.37ZM2254.16 1575.63 2274 1534 2295.4 1574.85Z"/><path d="M2849.5 1234.5C2849.5 1219.59 2861.59 1207.5 2876.5 1207.5L3411.5 1207.5C3426.41 1207.5 3438.5 1219.59 3438.5 1234.5L3438.5 1342.5C3438.5 1357.41 3426.41 1369.5 3411.5 1369.5L2876.5 1369.5C2861.59 1369.5 2849.5 1357.41 2849.5 1342.5Z" stroke="#000000" stroke-width="4.58333" stroke-miterlimit="8" fill="#FFFFFF" fill-rule="evenodd"/><text font-family="Arial,Arial_MSFontService,sans-serif" font-weight="400" font-size="55" transform="matrix(1 0 0 1 2933.4 1308)">Index Generation</text><path d="M3137.2 1500.89 3137.14 1403.38 3150.89 1403.37 3150.95 1500.88ZM3123.4 1410.26 3144 1369 3164.65 1410.24Z"/><path d="M1526.32 1018.12 1025.35 1016.02 1025.4 1002.27 1526.37 1004.37ZM1032.16 1029.8 991 1009 1032.34 988.548Z"/><path d="M1608 1582.13 1792.55 1582.13 1792.55 1707.45 1785.68 1700.58 1928.98 1700.58 1928.98 1714.33 1778.8 1714.33 1778.8 1589 1785.68 1595.88 1608 1595.88ZM1922.1 1686.83 1963.35 1707.45 1922.1 1728.08Z"/><path d="M2271.91 1842.47 2270.84 1790.51 2284.59 1790.23 2285.66 1842.19ZM2257.23 1797.67 2277 1756 2298.47 1796.81Z"/><path d="M578.5 3018.24C578.5 3026.93 648.344 3033.97 734.5 3033.97 820.657 3033.97 890.5 3026.93 890.5 3018.24L890.5 3167.76C890.5 3176.45 820.657 3183.5 734.5 3183.5 648.344 3183.5 578.5 3176.45 578.5 3167.76Z" fill="#A6A6A6" fill-rule="evenodd"/><path d="M578.5 3018.24C578.5 3009.55 648.344 3002.5 734.5 3002.5 820.657 3002.5 890.5 3009.55 890.5 3018.24 890.5 3026.93 820.657 3033.97 734.5 3033.97 648.344 3033.97 578.5 3026.93 578.5 3018.24Z" fill="#CACACA" fill-rule="evenodd"/><path d="M890.5 3018.24C890.5 3026.93 820.657 3033.97 734.5 3033.97 648.344 3033.97 578.5 3026.93 578.5 3018.24 578.5 3009.55 648.344 3002.5 734.5 3002.5 820.657 3002.5 890.5 3009.55 890.5 3018.24L890.5 3167.76C890.5 3176.45 820.657 3183.5 734.5 3183.5 648.344 3183.5 578.5 3176.45 578.5 3167.76L578.5 3018.24" stroke="#000000" stroke-width="4.58333" stroke-miterlimit="8" fill="none" fill-rule="evenodd"/><text fill="#FFFFFF" font-family="Arial,Arial_MSFontService,sans-serif" font-weight="400" font-size="55" transform="matrix(1 0 0 1 676.237 3087)">Data </text><text fill="#FFFFFF" font-family="Arial,Arial_MSFontService,sans-serif" font-weight="400" font-size="55" transform="matrix(1 0 0 1 674.816 3153)">base</text><path d="M967.5 3035.67C967.5 3019.01 981.006 3005.5 997.667 3005.5L1290.33 3005.5C1306.99 3005.5 1320.5 3019.01 1320.5 3035.67L1320.5 3156.33C1320.5 3172.99 1306.99 3186.5 1290.33 3186.5L997.667 3186.5C981.006 3186.5 967.5 3172.99 967.5 3156.33Z" stroke="#000000" stroke-width="4.58333" stroke-miterlimit="8" fill="#FFFFFF" fill-rule="evenodd"/><text font-family="Arial,Arial_MSFontService,sans-serif" font-weight="400" font-size="55" transform="matrix(1 0 0 1 1010.6 3082)">Automated</text><text font-family="Arial,Arial_MSFontService,sans-serif" font-weight="400" font-size="55" transform="matrix(1 0 0 1 1055.01 3148)">process</text><path d="M1391.5 3032.67C1391.5 3016.01 1405.01 3002.5 1421.67 3002.5L1709.33 3002.5C1725.99 3002.5 1739.5 3016.01 1739.5 3032.67L1739.5 3153.33C1739.5 3169.99 1725.99 3183.5 1709.33 3183.5L1421.67 3183.5C1405.01 3183.5 1391.5 3169.99 1391.5 3153.33Z" stroke="#000000" stroke-width="4.58333" stroke-miterlimit="8" fill="#9D9EA0" fill-rule="evenodd"/><text fill="#FFFFFF" font-family="Arial,Arial_MSFontService,sans-serif" font-weight="400" font-size="55" transform="matrix(1 0 0 1 1475.19 3080)">Manual </text><text fill="#FFFFFF" font-family="Arial,Arial_MSFontService,sans-serif" font-weight="400" font-size="55" transform="matrix(1 0 0 1 1468.88 3146)">process</text><text font-family="Arial,Arial_MSFontService,sans-serif" font-weight="400" font-size="50" transform="matrix(1 0 0 1 310.564 3106)">Legend:</text><path d="M1913.99 2229.38 1573.37 2228.92 1573.38 2215.17 1914.01 2215.63ZM1580.22 2242.68 1539 2222 1580.28 2201.43Z"/><path d="M2258.5 3099 2518.5 3014.5 2778.5 3099 2518.5 3183.5Z" stroke="#000000" stroke-width="4.58333" stroke-miterlimit="8" fill="#FFFFFF" fill-rule="evenodd"/><text font-family="Arial,Arial_MSFontService,sans-serif" font-weight="400" font-size="55" transform="matrix(1 0 0 1 2413.5 3118)">Decision</text><text font-family="Times New Roman,Times New Roman_MSFontService,sans-serif" font-weight="400" font-size="83" transform="matrix(1 0 0 1 -387.088 -300)">Service Developer</text><text font-family="Times New Roman,Times New Roman_MSFontService,sans-serif" font-weight="400" font-size="83" transform="matrix(1 0 0 1 -345.934 2694)">Data Provider</text><path d="M1832.5 2784.5 1964.9 2607.5 2494.5 2607.5 2362.1 2784.5Z" stroke="#000000" stroke-width="4.58333" stroke-miterlimit="8" fill="#9D9EA0" fill-rule="evenodd"/><text fill="#FFFFFF" font-family="Arial,Arial_MSFontService,sans-serif" font-weight="400" font-size="55" transform="matrix(1 0 0 1 1966.03 2682)">Semi Structured </text><text fill="#FFFFFF" font-family="Arial,Arial_MSFontService,sans-serif" font-weight="400" font-size="55" transform="matrix(1 0 0 1 2104.98 2748)">Data</text><path d="M2751.5 2786.5 2883.1 2606.5 3409.5 2606.5 3277.9 2786.5Z" stroke="#000000" stroke-width="4.58333" stroke-miterlimit="8" fill="#9D9EA0" fill-rule="evenodd"/><text fill="#FFFFFF" font-family="Arial,Arial_MSFontService,sans-serif" font-weight="400" font-size="55" transform="matrix(1 0 0 1 2953.57 2683)">Structured</text><text fill="#FFFFFF" font-family="Arial,Arial_MSFontService,sans-serif" font-weight="400" font-size="55" transform="matrix(1 0 0 1 3022.32 2749)">Data</text><path d="M1816.5 3177.5 1899.3 2996.5 2230.5 2996.5 2147.7 3177.5Z" stroke="#000000" stroke-width="4.58333" stroke-miterlimit="8" fill="#9D9EA0" fill-rule="evenodd"/><text fill="#FFFFFF" font-family="Arial,Arial_MSFontService,sans-serif" font-weight="400" font-size="55" transform="matrix(1 0 0 1 1957.25 3074)">Data/</text><text fill="#FFFFFF" font-family="Arial,Arial_MSFontService,sans-serif" font-weight="400" font-size="55" transform="matrix(1 0 0 1 1913.14 3140)">Ontology</text><path d="M337.5 965.667C337.5 953.425 347.425 943.5 359.667 943.5L969.333 943.5C981.575 943.5 991.5 953.425 991.5 965.667L991.5 1054.33C991.5 1066.58 981.575 1076.5 969.333 1076.5L359.667 1076.5C347.425 1076.5 337.5 1066.58 337.5 1054.33Z" stroke="#000000" stroke-width="4.58333" stroke-miterlimit="8" fill="#FFFFFF" fill-rule="evenodd"/><text font-family="Arial,Arial_MSFontService,sans-serif" font-weight="400" font-size="55" transform="matrix(1 0 0 1 400.199 1029)">Annotated Data </text><text font-family="Arial,Arial_MSFontService,sans-serif" font-weight="400" font-size="55" transform="matrix(1 0 0 1 796.657 1029)">Store</text><path d="M0-6.875 200.096-6.875 200.096 1593.51 186.346 1593.51 186.346 0 193.221 6.875 0 6.875ZM213.846 1586.64 193.221 1627.89 172.596 1586.64Z" transform="matrix(-1.83697e-16 -1 -1 1.83697e-16 3143.89 440.221)"/><path d="M951.5 208.334C951.5 197.38 960.38 188.5 971.334 188.5L1496.67 188.5C1507.62 188.5 1516.5 197.38 1516.5 208.334L1516.5 287.666C1516.5 298.62 1507.62 307.5 1496.67 307.5L971.334 307.5C960.38 307.5 951.5 298.62 951.5 287.666Z" stroke="#000000" stroke-width="4.58333" stroke-miterlimit="8" fill="#9D9EA0" fill-rule="evenodd"/><text fill="#FFFFFF" font-family="Arial,Arial_MSFontService,sans-serif" font-weight="400" font-size="55" transform="matrix(1 0 0 1 1158.54 267)">Query</text><path d="M1226.13 187.661 1226.13 139.375 1239.88 139.375 1239.88 187.661ZM1212.38 146.25 1233 105 1253.63 146.25Z"/><path d="M914.5 105.5 1042.3-15.5 1553.5-15.5 1425.7 105.5Z" stroke="#000000" stroke-width="4.58333" stroke-miterlimit="8" fill="#9D9EA0" fill-rule="evenodd"/><text fill="#FFFFFF" font-family="Arial,Arial_MSFontService,sans-serif" font-weight="400" font-size="55" transform="matrix(1 0 0 1 1155.67 65)">Result</text><path d="M0.0477212-6.87483 961.092-0.203802 960.997 13.5459-0.0477212 6.87483ZM954.314-14.0012 995.42 6.90965 954.028 27.2478Z" transform="matrix(1 0 0 -1 1811 581.91)"/><path d="M6.87417-0.107041 7.51186 40.8458-6.23647 41.0599-6.87417 0.107041ZM21.1532 33.7575 1.1729 75.3237-20.0918 34.3998Z" transform="matrix(1 0 0 -1 3144 2056.32)"/><path d="M0-6.875 368.502-6.875 368.502 324.553 354.752 324.553 354.752 0 361.627 6.875 0 6.875ZM382.252 317.678 361.627 358.928 341.002 317.678Z" transform="matrix(-1.83697e-16 -1 -1 1.83697e-16 2273.93 1372.63)"/><path d="M0-6.875 202.802-6.875 202.802 1193.97 189.052 1193.97 189.052 0 195.927 6.875 0 6.875ZM216.552 1187.1 195.927 1228.35 175.302 1187.1Z" transform="matrix(-1.83697e-16 -1 -1 1.83697e-16 3143.35 1206.93)"/><path d="M0-6.875 128.017-6.875 128.017 572.392 121.142 565.517 196.909 565.517 196.909 579.267 114.267 579.267 114.267 0 121.142 6.875 0 6.875ZM190.034 551.767 231.284 572.392 190.034 593.017Z" transform="matrix(-1.83697e-16 -1 -1 1.83697e-16 1233.39 -15.7158)"/><path d="M1223.12-16.4525 1223.12-143.604 1840.63-143.604 1833.75-136.729 1833.75-222.625 1847.5-222.625 1847.5-129.854 1230-129.854 1236.87-136.729 1236.87-16.4525ZM1820-215.75 1840.63-257 1861.25-215.75Z"/><path d="M1226.12-15.7154 1226.12-143.734 3020.7-143.734 3013.83-136.859 3013.83-223.625 3027.58-223.625 3027.58-129.984 1233-129.984 1239.88-136.859 1239.88-15.7154ZM3000.08-216.75 3020.7-258 3041.33-216.75Z"/><text fill="#FFFFFF" font-family="Arial,Arial_MSFontService,sans-serif" font-weight="700" font-size="55" transform="matrix(1 0 0 1 -167.359 42)">Query Process</text><path d="M-456 2506 3636.14 2506" stroke="#000000" stroke-width="8.02083" stroke-linejoin="round" stroke-miterlimit="10" stroke-dasharray="32.0833 24.0625" fill="none" fill-rule="evenodd"/><path d="M657.125 942.741 657.125 821.495 1233.78 821.495 1226.9 828.37 1226.9 748.375 1240.65 748.375 1240.65 835.245 664 835.245 670.875 828.37 670.875 942.741ZM1213.15 755.25 1233.78 714 1254.4 755.25Z"/><text fill="#FFFFFF" font-family="Arial,Arial_MSFontService,sans-serif" font-weight="700" font-size="55" transform="matrix(1 0 0 1 -232.907 473)">Knowledge Graph Generation</text><path d="M1226.62 449.638 1226.25 341.399 1240 341.351 1240.37 449.589ZM1212.52 348.322 1233 307 1253.77 348.178Z"/><path d="M6.875-2.53679e-05 6.87523 63.4311-6.87477 63.4312-6.875 2.53679e-05ZM20.6252 56.5561 0.000360892 97.8062-20.6248 56.5562Z" transform="matrix(1 0 0 -1 3144 806.806)"/><path d="M3139.43 2605.6 3137.31 2209.41 3151.06 2209.34 3153.18 2605.53ZM3123.6 2216.36 3144 2175 3164.85 2216.14Z"/><text fill="#FFFFFF" font-family="Arial,Arial_MSFontService,sans-serif" font-weight="700" font-size="55" transform="matrix(1 0 0 1 -215.428 1336)">Ontology Development</text><text font-family="Times New Roman,Times New Roman_MSFontService,sans-serif" font-weight="400" font-size="83" transform="matrix(6.12323e-17 -1 1 6.12323e-17 -342.396 2347)">Semi</text><text font-family="Times New Roman,Times New Roman_MSFontService,sans-serif" font-weight="400" font-size="83" transform="matrix(6.12323e-17 -1 1 6.12323e-17 -342.396 2178)">-</text><text font-family="Times New Roman,Times New Roman_MSFontService,sans-serif" font-weight="400" font-size="83" transform="matrix(6.12323e-17 -1 1 6.12323e-17 -342.396 2150)">Automatic Semantic Interoperability Enhancement Framework</text><path d="M1316.5 569.333C1316.5 557.828 1423.73 548.5 1556 548.5 1688.27 548.5 1795.5 557.828 1795.5 569.333L1795.5 652.667C1795.5 664.172 1688.27 673.5 1556 673.5 1423.73 673.5 1316.5 664.172 1316.5 652.667Z" fill="#9D9EA0" fill-rule="evenodd"/><path d="M1795.5 569.333C1795.5 580.839 1688.27 590.167 1556 590.167 1423.73 590.167 1316.5 580.839 1316.5 569.333" stroke="#000000" stroke-width="4.58333" stroke-miterlimit="8" fill="none" fill-rule="evenodd"/><path d="M1316.5 569.333C1316.5 557.828 1423.73 548.5 1556 548.5 1688.27 548.5 1795.5 557.828 1795.5 569.333L1795.5 652.667C1795.5 664.172 1688.27 673.5 1556 673.5 1423.73 673.5 1316.5 664.172 1316.5 652.667Z" stroke="#000000" stroke-width="4.58333" stroke-miterlimit="8" fill="none" fill-rule="evenodd"/><text fill="#FFFFFF" font-family="Arial,Arial_MSFontService,sans-serif" font-weight="400" font-size="55" transform="matrix(1 0 0 1 1354.75 641)">Graph Database</text></g></svg>